<?xml version="1.0" encoding="UTF-8"?>
<svg version="1.1" xmlns="http://www.w3.org/2000/svg" width="142" height="142">
<path d="M0 0 C46.86 0 93.72 0 142 0 C142 46.86 142 93.72 142 142 C95.14 142 48.28 142 0 142 C0 95.14 0 48.28 0 0 Z " fill="#1A222D" transform="translate(0,0)"/>
<path d="M0 0 C46.86 0 93.72 0 142 0 C142 46.86 142 93.72 142 142 C95.14 142 48.28 142 0 142 C0 95.14 0 48.28 0 0 Z M16 15 C11.71304884 21.00173163 10.85105257 26.16505597 10.82299805 33.37963867 C10.81642685 34.11679108 10.80985565 34.85394348 10.80308533 35.61343384 C10.78340776 38.04827996 10.77170083 40.48306449 10.76171875 42.91796875 C10.75764322 43.75257441 10.7535677 44.58718006 10.74936867 45.4470768 C10.72852943 49.86648941 10.71421963 54.28587119 10.70483398 58.70532227 C10.69378667 63.25357188 10.65940024 67.80132997 10.61966228 72.34940624 C10.593425 75.86089441 10.58513577 79.37226682 10.58155251 82.88384438 C10.57670326 84.55946476 10.56513701 86.23508056 10.54651451 87.91060448 C10.44284876 97.85762614 10.74257953 105.84686246 16.5703125 114.26953125 C24.49567998 122.13515977 33.18652499 123.51249913 43.9808197 123.53013611 C45.50675058 123.51965507 47.03267558 123.50828569 48.55859375 123.49609375 C50.15462815 123.4962491 51.75066292 123.49774395 53.34669495 123.50050354 C56.67767189 123.50188109 60.0082149 123.48943989 63.33911133 123.46655273 C67.57983757 123.43819313 71.81984282 123.44090775 76.06062222 123.45364285 C79.35262563 123.46064397 82.64446643 123.45276018 85.93644905 123.44038582 C87.49873287 123.43591259 89.06103441 123.43549782 90.62331963 123.43945122 C107.87140475 123.47125285 107.87140475 123.47125285 122.34375 114.96875 C127.69454153 108.60837516 129.11700101 102.13660419 129.16113281 93.98754883 C129.16609772 93.28941071 129.17106262 92.59127258 129.17617798 91.87197876 C129.19075683 89.56698612 129.19759568 87.26206239 129.203125 84.95703125 C129.20888151 83.34763081 129.21463918 81.73823038 129.22039795 80.12882996 C129.23089686 76.75377077 129.23674627 73.37873532 129.24023438 70.00366211 C129.24570608 65.6976315 129.26971026 61.39191916 129.29820633 57.08598804 C129.31691641 53.7597922 129.32204282 50.4336716 129.32357025 47.1074276 C129.32658023 45.52113805 129.3345523 43.93484929 129.34775543 42.34861183 C129.41193525 34.04275677 129.28548876 26.78552087 126 19 C125.71125 18.05125 125.4225 17.1025 125.125 16.125 C123.55735677 13.16389612 122.00991954 12.50495977 119 11 C118.38746368 10.59761108 117.77492737 10.19522217 117.14382935 9.78063965 C108.91541371 4.82729011 100.50784306 5.30766822 91.2421875 5.40625 C89.5268665 5.40796436 87.81154288 5.40789212 86.09622192 5.40612793 C82.51717756 5.40777369 78.93876523 5.42633689 75.35986328 5.45800781 C70.78926134 5.49774332 66.21948277 5.50204131 61.64874077 5.49454498 C58.11236119 5.49146559 54.57616421 5.50362919 51.03982925 5.52067566 C49.35505443 5.52766855 47.67025894 5.53083473 45.98546982 5.52998352 C43.62649337 5.5317956 41.26847678 5.55329375 38.90966797 5.58007812 C37.88234055 5.57568222 37.88234055 5.57568222 36.83425903 5.57119751 C28.45098037 5.71694081 21.63475374 8.85039566 16 15 Z " fill="#231F1B" transform="translate(0,0)"/>
<path d="M0 0 C0.66 0.66 1.32 1.32 2 2 C3.52778223 2.59918597 5.07226956 3.15630274 6.625 3.6875 C15.06761924 6.98901488 21.08297814 12.80815139 25 21 C25 21.66 25 22.32 25 23 C27.475 23.99 27.475 23.99 30 25 C29.125 29.875 29.125 29.875 28 31 C25.26859133 31.15174493 22.93550587 30.98680802 20.25 30.4375 C19.5075 30.293125 18.765 30.14875 18 30 C17.505 30.495 17.505 30.495 17 31 C12.1284798 31.16513628 7.80967688 30.82116434 3 30 C2.505 30.495 2.505 30.495 2 31 C-1.95829222 31.1341794 -5.46738559 31.08876907 -9.375 30.4375 C-11.97089775 29.74037734 -11.97089775 29.74037734 -14 31 C-17.30960024 31.12489058 -20.31999362 31.14926969 -23.5625 30.4375 C-26.12451214 29.83296855 -26.12451214 29.83296855 -29.1875 30.5625 C-30.115625 30.706875 -31.04375 30.85125 -32 31 C-32.66 30.34 -33.32 29.68 -34 29 C-33.76489816 24.53306501 -32.10009249 23.01630621 -29 20 C-28.06574329 18.5528724 -27.15097766 17.09307804 -26.25 15.625 C-21.08238482 7.74438685 -9.94021947 -1.10261258 0 0 Z " fill="#F7F0DF" transform="translate(73,37)"/>
<path d="M0 0 C3.57078712 0.1298468 6.78723499 0.03612991 10.3125 -0.5625 C13 -1 13 -1 15 0 C18.55715972 0.13681384 21.79946986 0.03405229 25.3125 -0.5625 C28 -1 28 -1 30 0 C33.55715972 0.13681384 36.79946986 0.03405229 40.3125 -0.5625 C43 -1 43 -1 45 0 C44.46059411 5.28617772 43.39176094 9.30846894 41 14 C37.11612261 16.58925159 33.8245068 16.32377642 29.31640625 16.3359375 C28.03853493 16.3459227 28.03853493 16.3459227 26.73484802 16.35610962 C24.93352416 16.36623202 23.13216282 16.37092677 21.33081055 16.37060547 C18.57603147 16.37497852 15.82285492 16.41130042 13.06835938 16.44921875 C11.31771381 16.45508705 9.56706064 16.45905635 7.81640625 16.4609375 C6.99338516 16.47530853 6.17036407 16.48967957 5.32240295 16.50448608 C-0.40099753 16.45879788 -0.40099753 16.45879788 -3.4855957 14.09619141 C-4.94748332 12.07269196 -5.92420929 10.34891579 -6.75 8 C-6.99234375 7.34 -7.2346875 6.68 -7.484375 6 C-8 4 -8 4 -8 0 C-4.58524944 -1.13825019 -3.4490642 -0.70549041 0 0 Z " fill="#F8F0DF" transform="translate(52,71)"/>
<path d="M0 0 C0.99 0.66 1.98 1.32 3 2 C2.70480469 2.7115625 2.40960938 3.423125 2.10546875 4.15625 C1.03271478 6.91584324 0.13151477 9.65542187 -0.6875 12.5 C-1.09548828 13.87671875 -1.09548828 13.87671875 -1.51171875 15.28125 C-2.03507092 18.19527489 -1.76580039 20.16294083 -1 23 C-0.06027344 22.87431641 -0.06027344 22.87431641 0.8984375 22.74609375 C2.12433594 22.59333984 2.12433594 22.59333984 3.375 22.4375 C4.18710937 22.33308594 4.99921875 22.22867188 5.8359375 22.12109375 C8 22 8 22 10 23 C13.55715972 23.13681384 16.79946986 23.03405229 20.3125 22.4375 C23 22 23 22 25 23 C29.59403085 23.15062396 33.50088058 22.92628929 38 22 C38.66 22.33 39.32 22.66 40 23 C43.75730653 23.12319038 47.02936159 23.22572986 50.6875 22.375 C53.65834605 21.89324118 55.25639505 22.87441848 58 24 C60.24240782 23.71260075 60.24240782 23.71260075 62 23 C62.401583 17.24397693 60.87430045 14.64202238 57.6171875 10.05078125 C57.14539063 9.35339844 56.67359375 8.65601563 56.1875 7.9375 C55.72730469 7.28652344 55.26710937 6.63554688 54.79296875 5.96484375 C54 4 54 4 54.86328125 1.75390625 C55.23839844 1.17511719 55.61351562 0.59632812 56 0 C56.66 0 57.32 0 58 0 C64.12015757 8.41521666 67.33801173 16.5526963 66 27 C64.08740103 33.31691055 61.95248306 38.52371723 57 43 C56.01 42.34 55.02 41.68 54 41 C54 40.34 54 39.68 54 39 C53.34 39 52.68 39 52 39 C53.485 33.06 53.485 33.06 55 27 C49.52174919 26.5527864 49.52174919 26.5527864 47 28 C43.44284028 28.13681384 40.20053014 28.03405229 36.6875 27.4375 C34.03806674 26.73716842 34.03806674 26.73716842 32 28 C28.44284028 28.13681384 25.20053014 28.03405229 21.6875 27.4375 C19.03806674 26.73716842 19.03806674 26.73716842 17 28 C12.81310011 28.15799622 9.08005522 27.90667894 5 27 C4.01 27 3.02 27 2 27 C3.32 31.29 4.64 35.58 6 40 C2 42 2 42 -1 42 C-2.31640625 40.42578125 -2.31640625 40.42578125 -3.5625 38.3125 C-3.97628906 37.62800781 -4.39007813 36.94351563 -4.81640625 36.23828125 C-8.6711012 28.94870962 -8.95183342 22.16318154 -8 14 C-6.1569849 8.82146678 -3.91881803 3.91881803 0 0 Z " fill="#272E38" transform="translate(42,44)"/>
<path d="M0 0 C0.99 0 1.98 0 3 0 C10.95918459 9.6776449 14.10344476 19.62898548 13 32 C11.71839848 41.00584853 8.2756802 47.65740947 3 55 C1.68 54.34 0.36 53.68 -1 53 C0.07799395 50.83899818 1.16167 48.68119281 2.25390625 46.52734375 C2.68574219 45.67269531 3.11757812 44.81804687 3.5625 43.9375 C3.99691406 43.08027344 4.43132812 42.22304687 4.87890625 41.33984375 C8.34408629 34.10763872 8.25607778 23.8485904 6.24609375 16.08984375 C4.74993307 12.66920973 2.83584695 9.72662495 0.6875 6.6875 C-1 4 -1 4 -0.75 1.625 C-0.5025 1.08875 -0.255 0.5525 0 0 Z " fill="#ECE7D9" transform="translate(104,38)"/>
<path d="M0 0 C1.32 0.66 2.64 1.32 4 2 C2.3347477 5.46927562 0.34418483 8.60357528 -1.78125 11.8046875 C-6.1900517 19.74618286 -6.38087391 28.94413099 -4.01953125 37.58984375 C-1.9448851 43.16266248 0.36114051 48.28295993 4 53 C3.01 53.66 2.02 54.32 1 55 C-5.04125658 49.62999415 -9.31685472 42.16030566 -10.22241211 33.99438477 C-10.94228909 20.25789356 -8.99801449 10.73763062 0 0 Z " fill="#F0EADB" transform="translate(35,38)"/>
<path d="M0 0 C0.66 0 1.32 0 2 0 C8.12015757 8.41521666 11.33801173 16.5526963 10 27 C8.08740103 33.31691055 5.95248306 38.52371723 1 43 C0.34 42.34 -0.32 41.68 -1 41 C-0.60511189 38.07175277 0.56033309 35.71303441 1.9375 33.125 C4.64902131 27.80055816 6.64727564 23.08439098 6 17 C4.74991069 14.49982139 3.23179464 12.32673877 1.6171875 10.05078125 C1.14539063 9.35339844 0.67359375 8.65601563 0.1875 7.9375 C-0.27269531 7.28652344 -0.73289062 6.63554688 -1.20703125 5.96484375 C-2 4 -2 4 -1.13671875 1.75390625 C-0.76160156 1.17511719 -0.38648437 0.59632812 0 0 Z " fill="#EDE8D9" transform="translate(98,44)"/>
<path d="M0 0 C0.99 0.66 1.98 1.32 3 2 C1.24067146 6.74589601 -1.23499232 10.8693199 -3.85546875 15.18359375 C-6.1864839 20.91964128 -3.25742941 27.49383522 -1 33 C0.21540942 35.13789643 1.52865739 37.02129787 3 39 C2.34 40.32 1.68 41.64 1 43 C-4.69177121 38.09875257 -7.47614989 33.00722949 -8.45703125 25.50390625 C-8.86105068 16.32420905 -7.0498946 9.67950293 -2 2 C-1.34 1.34 -0.68 0.68 0 0 Z " fill="#EFEADC" transform="translate(42,44)"/>
<path d="M0 0 C0.33 0 0.66 0 1 0 C2.44199835 11.61435627 2.18968443 20.25383742 -4.75 30.1875 C-5.4925 31.115625 -6.235 32.04375 -7 33 C-8.32 32.34 -9.64 31.68 -11 31 C-9.99869629 28.95124954 -8.9714781 26.95142805 -7.81640625 24.984375 C-4.05239199 18.27715956 -2.7722432 11.7416487 -1.578125 4.24609375 C-1 1 -1 1 0 0 Z " fill="#F3EDDE" transform="translate(114,60)"/>
<path d="M0 0 C4.3464841 0.86929682 8.41337481 0.86018621 12.75 -0.0625 C16.88140343 -0.56838613 19.83012157 0.39525115 23.8125 1.5625 C23.8125 1.8925 23.8125 2.2225 23.8125 2.5625 C15.0072248 5.15228682 5.87643215 6.37256453 -3.1875 4.5625 C-3.5175 3.2425 -3.8475 1.9225 -4.1875 0.5625 C-2.1875 -0.4375 -2.1875 -0.4375 0 0 Z " fill="#30363F" transform="translate(49.1875,66.4375)"/>
<path d="M0 0 C1.53394043 2.30091065 2.74228627 4.40777165 3.9375 6.875 C5.48433459 10.01501629 7.14317368 13.02907789 9 16 C8.01 16.66 7.02 17.32 6 18 C1.84577366 14.30735436 -1.27087259 10.36703182 -3 5 C-2.67 4.01 -2.34 3.02 -2 2 C-1.34 2 -0.68 2 0 2 C0 1.34 0 0.68 0 0 Z " fill="#ECE7D9" transform="translate(30,75)"/>
<path d="M0 0 C0.66 0 1.32 0 2 0 C4.2631157 6.22356817 4.65537349 12.40771375 4 19 C3.34 19.99 2.68 20.98 2 22 C1.67 18.04 1.34 14.08 1 10 C0.67 12.64 0.34 15.28 0 18 C-0.33 18 -0.66 18 -1 18 C-1.22245975 15.75135275 -1.42746557 13.50097377 -1.625 11.25 C-1.74101563 9.99703125 -1.85703125 8.7440625 -1.9765625 7.453125 C-1.99888599 4.16413097 -1.77961002 2.68979224 0 0 Z " fill="#DFDBCE" transform="translate(113,51)"/>
<path d="M0 0 C0.99 0.66 1.98 1.32 3 2 C2.57202798 7.70629354 0.15654048 11.41078616 -3 16 C-3.99 15.34 -4.98 14.68 -6 14 C-5.31113213 10.61108678 -4.01283514 7.81988387 -2.4375 4.75 C-1.75494141 3.41195312 -1.75494141 3.41195312 -1.05859375 2.046875 C-0.70925781 1.37140625 -0.35992187 0.6959375 0 0 Z " fill="#EBE6D8" transform="translate(103,71)"/>
<path d="M0 0 C1.95218444 3.27688103 2.27063566 5.77069727 2.25 9.5625 C2.25515625 10.51253906 2.2603125 11.46257812 2.265625 12.44140625 C2 15 2 15 0 18 C-1.52734375 16.80859375 -1.52734375 16.80859375 -3 15 C-3.00390625 12.66015625 -3.00390625 12.66015625 -2.5625 10.0625 C-1.92692937 6.26625383 -1.96120978 4.31591918 -4 1 C-2.68 1.33 -1.36 1.66 0 2 C0 1.34 0 0.68 0 0 Z " fill="#DCD8CC" transform="translate(106,56)"/>
<path d="M0 0 C2.50612166 1.25306083 2.88384342 2.33478372 4.125 4.8125 C4.47820313 5.49957031 4.83140625 6.18664062 5.1953125 6.89453125 C6 9 6 9 6 13 C5.01 13 4.02 13 3 13 C1.61328125 11.35546875 1.61328125 11.35546875 0.3125 9.1875 C-0.12449219 8.47980469 -0.56148437 7.77210937 -1.01171875 7.04296875 C-2 5 -2 5 -2 2 C-1.34 2 -0.68 2 0 2 C0 1.34 0 0.68 0 0 Z " fill="#F2EDDE" transform="translate(38,73)"/>
<path d="M0 0 C0.66 0 1.32 0 2 0 C2.33 3.63 2.66 7.26 3 11 C3.33 8.69 3.66 6.38 4 4 C4.33 4 4.66 4 5 4 C5.05447047 5.41623216 5.09300508 6.83308191 5.125 8.25 C5.14820313 9.03890625 5.17140625 9.8278125 5.1953125 10.640625 C4.9828378 13.20731941 4.28654105 14.7916067 3 17 C2.34 17 1.68 17 1 17 C-0.18681726 13.43954823 -0.09689832 10.56191663 -0.0625 6.8125 C-0.05347656 5.54019531 -0.04445313 4.26789062 -0.03515625 2.95703125 C-0.02355469 1.98121094 -0.01195313 1.00539062 0 0 Z " fill="#353A43" transform="translate(29,58)"/>
<path d="M0 0 C1.98 0.495 1.98 0.495 4 1 C4 6.61 4 12.22 4 18 C3.67 17.01 3.34 16.02 3 15 C2.34 15 1.68 15 1 15 C0.93941406 14.22914062 0.87882812 13.45828125 0.81640625 12.6640625 C0.73261719 11.66117188 0.64882812 10.65828125 0.5625 9.625 C0.48128906 8.62726563 0.40007812 7.62953125 0.31640625 6.6015625 C0.15034374 4.02072387 0.15034374 4.02072387 -1 2 C-0.67 1.34 -0.34 0.68 0 0 Z " fill="#232A35" transform="translate(108,56)"/>
<path d="M0 0 C0 0.66 0 1.32 0 2 C-4.873261 3.5912689 -8.80790596 4.21192221 -14 4 C-13.67 3.01 -13.34 2.02 -13 1 C-8.28182696 -0.85026394 -4.91528399 -1.19884975 0 0 Z " fill="#1E2530" transform="translate(81,68)"/>
<path d="M0 0 C2.6183364 2.78198242 3.92199358 4.33694545 4.375 8.1875 C4 11 4 11 2 13 C1.01 12.67 0.02 12.34 -1 12 C-0.34 11.34 0.32 10.68 1 10 C1 8.68 1 7.36 1 6 C0.360625 5.731875 -0.27875 5.46375 -0.9375 5.1875 C-3 4 -3 4 -4 1 C-2.68 1.33 -1.36 1.66 0 2 C0 1.34 0 0.68 0 0 Z " fill="#212832" transform="translate(101,56)"/>
<path d="M0 0 C1.37805701 3.82793613 0.58481668 7.05248739 0 11 C0.33 11.66 0.66 12.32 1 13 C0.01 13.33 -0.98 13.66 -2 14 C-4 11 -4 11 -3.8125 8.125 C-2.98580683 4.94541088 -1.83180644 2.70788778 0 0 Z " fill="#353B43" transform="translate(40,55)"/>
<path d="M0 0 C1.50433594 0.29197266 1.50433594 0.29197266 3.0390625 0.58984375 C4.19535156 0.82380859 4.19535156 0.82380859 5.375 1.0625 C5.375 1.3925 5.375 1.7225 5.375 2.0625 C1.10883684 3.20014351 -2.18986311 4.0625 -6.625 4.0625 C-6.955 2.7425 -7.285 1.4225 -7.625 0.0625 C-4.81015955 -1.34492022 -3.05563887 -0.60402164 0 0 Z " fill="#363C44" transform="translate(52.625,66.9375)"/>
<path d="M0 0 C1.32 0.66 2.64 1.32 4 2 C3.67 3.98 3.34 5.96 3 8 C2.01 8.33 1.02 8.66 0 9 C-1.125 2.25 -1.125 2.25 0 0 Z " fill="#E3DDD0" transform="translate(35,67)"/>
<path d="M0 0 C1.65 0.33 3.3 0.66 5 1 C4.34 3.31 3.68 5.62 3 8 C1.68 7.01 0.36 6.02 -1 5 C-0.67 3.35 -0.34 1.7 0 0 Z " fill="#2A313A" transform="translate(106,74)"/>
<path d="M0 0 C1.485 0.99 1.485 0.99 3 2 C2.67 3.65 2.34 5.3 2 7 C1.01 7 0.02 7 -1 7 C-0.67 4.69 -0.34 2.38 0 0 Z " fill="#F7F1E1" transform="translate(103,71)"/>
<path d="M0 0 C0.33 0 0.66 0 1 0 C0.67 3.63 0.34 7.26 0 11 C-1.9451 8.08235 -2.45276317 6.37462715 -3 3 C-2.34 3 -1.68 3 -1 3 C-0.67 2.01 -0.34 1.02 0 0 Z " fill="#FAF4E3" transform="translate(29,52)"/>
<path d="M0 0 C1.42944945 2.35438733 2.08661261 3.48032433 1.625 6.25 C1.41875 6.8275 1.2125 7.405 1 8 C-0.32 7.34 -1.64 6.68 -3 6 C-2 4 -1 2 0 0 Z " fill="#E5E1D4" transform="translate(106,85)"/>
<path d="M0 0 C-0.33 0.66 -0.66 1.32 -1 2 C-3.31 2 -5.62 2 -8 2 C-8.33 1.34 -8.66 0.68 -9 0 C-5.93109813 -1.53445094 -3.29905734 -0.54984289 0 0 Z " fill="#212833" transform="translate(60,70)"/>
<path d="M0 0 C1.9375 0.75 1.9375 0.75 4 2 C4.75 4.125 4.75 4.125 5 6 C3.68 5.67 2.36 5.34 1 5 C0.67 3.35 0.34 1.7 0 0 Z " fill="#3A3E46" transform="translate(80,49)"/>
<path d="M0 0 C0.66 0 1.32 0 2 0 C1.67 1.65 1.34 3.3 1 5 C-0.32 5.33 -1.64 5.66 -3 6 C-2.42655063 3.13275314 -2.1385485 2.1385485 0 0 Z " fill="#333941" transform="translate(60,49)"/>
<path d="M0 0 C1 3 1 3 0.5 4.875 C-0.1206595 7.51280286 0.34952865 9.3981146 1 12 C-1.13253755 9.40386733 -2.55075623 7.36932827 -3 4 C-2.67 3.34 -2.34 2.68 -2 2 C-1.34 2 -0.68 2 0 2 C0 1.34 0 0.68 0 0 Z " fill="#E4DFD1" transform="translate(30,75)"/>
<path d="M0 0 C0.66 0 1.32 0 2 0 C2.33 1.65 2.66 3.3 3 5 C1.68 5 0.36 5 -1 5 C-0.67 3.35 -0.34 1.7 0 0 Z " fill="#333941" transform="translate(70,49)"/>
<path d="M0 0 C0.66 0.33 1.32 0.66 2 1 C1.67 2.65 1.34 4.3 1 6 C-0.32 5.34 -1.64 4.68 -3 4 C-2.67 3.01 -2.34 2.02 -2 1 C-1.34 0.67 -0.68 0.34 0 0 Z " fill="#242B36" transform="translate(33,54)"/>
</svg>
